<?xml version="1.0" encoding="UTF-8" standalone="no"?>
<svg
   id="Layer_1"
   version="1.1"
   viewBox="0 0 1825 260.85002"
   width="1825"
   height="260.85001"
   xmlns="http://www.w3.org/2000/svg"
   xmlns:svg="http://www.w3.org/2000/svg">
  <!-- Generator: Adobe Illustrator 29.5.1, SVG Export Plug-In . SVG Version: 2.1.0 Build 141)  -->
  <defs
     id="defs1">
    <style
       id="style1">
      .st0 {
        fill: #231f20;
      }

      .st1 {
        opacity: .35;
      }

      .st2 {
        fill: #00a6d0;
      }
    </style>
  </defs>
  <g
     id="g38"
     transform="matrix(5,0,0,5,-58.9,-312.35)">
    <path
       class="st2"
       d="M 33.64,62.48 H 11.78 v 52.16 h 6.29 V 93.26 h 15.56 c 11.1,0 18.33,-5.75 18.33,-15.22 0,-9.47 -7.24,-15.56 -18.33,-15.56 z M 33.37,87.71 H 18.08 V 67.95 h 15.29 c 8.32,0 12.31,3.79 12.31,10.08 0,6.29 -3.99,9.67 -12.31,9.67 z"
       id="path33" />
    <path
       class="st2"
       d="m 106.37,77.56 c 0,-8.73 -6.16,-15.09 -16.78,-15.09 H 68.82 v 52.16 h 6.22 V 93.25 h 12.65 l 12.11,21.38 h 6.97 L 94.46,92.71 c 7.58,-1.83 11.91,-7.78 11.91,-15.15 z M 75.04,87.78 V 67.89 h 13.8 c 7.17,0 11.3,3.32 11.3,10.01 0,6.69 -4.13,9.88 -11.3,9.88 z"
       id="path34" />
    <rect
       class="st2"
       x="124.84"
       y="62.48"
       width="6.29"
       height="52.16"
       id="rect34" />
    <path
       class="st2"
       d="M 178.01,108.75 159.2,62.47 h -6.83 v 52.16 h 6.09 V 74.44 c 0.54,1.96 1.42,4.53 2.64,7.44 l 13.6,32.75 h 6.49 l 13.67,-32.81 c 1.15,-2.84 2.1,-5.41 2.64,-7.37 v 40.19 h 6.09 V 62.48 h -6.9 l -18.67,46.28 z"
       id="path35" />
    <path
       class="st2"
       d="m 239.92,62.48 -20.91,52.16 h 6.63 l 5.48,-14.28 c 7.98,2.57 16.03,2.57 24.02,0 l 5.55,14.28 h 6.63 L 246.35,62.48 Z m -6.7,32.61 8.52,-21.79 c 0.74,-1.83 1.42,-3.92 1.42,-3.92 0,0 0.68,2.1 1.42,3.92 l 8.46,21.79 c -6.63,2.5 -13.19,2.5 -19.82,0 z"
       id="path36" />
    <path
       class="st2"
       d="m 320.29,77.56 c 0,-8.73 -6.16,-15.09 -16.78,-15.09 h -20.77 v 52.16 h 6.22 V 93.25 h 12.58 l 12.18,21.38 h 6.9 L 308.37,92.71 c 7.58,-1.83 11.91,-7.78 11.91,-15.15 z M 288.97,87.78 V 67.89 h 13.8 c 7.17,0 11.23,3.32 11.23,10.01 0,6.69 -4.06,9.88 -11.23,9.88 z"
       id="path37" />
    <path
       class="st2"
       d="m 375.23,62.48 h -7.31 c -5.07,12.45 -14.07,21.31 -22.94,24.36 V 62.48 h -6.29 v 52.16 h 6.29 V 93.6 c 3.11,-1.08 6.22,-2.77 9.27,-4.8 l 15.22,25.84 h 7.31 L 359.32,84.87 c 6.36,-5.41 11.98,-12.92 15.9,-22.39 z"
       id="path38" />
  </g>
</svg>
