<?xml version="1.0" encoding="UTF-8" standalone="no"?>
<svg
   id="Capa_1"
   data-name="Capa 1"
   viewBox="0 0 399.99999 92.776472"
   version="1.1"
   sodipodi:docname="VIPS Logo Spain 31.01.2024.svg"
   width="400"
   height="92.776474"
   inkscape:version="1.1.2 (0a00cf5339, 2022-02-04)"
   xmlns:inkscape="http://www.inkscape.org/namespaces/inkscape"
   xmlns:sodipodi="http://sodipodi.sourceforge.net/DTD/sodipodi-0.dtd"
   xmlns="http://www.w3.org/2000/svg"
   xmlns:svg="http://www.w3.org/2000/svg"
   xmlns:rdf="http://www.w3.org/1999/02/22-rdf-syntax-ns#"
   xmlns:cc="http://creativecommons.org/ns#"
   xmlns:dc="http://purl.org/dc/elements/1.1/">
  <sodipodi:namedview
     id="namedview11"
     pagecolor="#505050"
     bordercolor="#ffffff"
     borderopacity="1"
     inkscape:pageshadow="0"
     inkscape:pageopacity="0"
     inkscape:pagecheckerboard="1"
     showgrid="false"
     inkscape:zoom="0.84680329"
     inkscape:cx="389.7009"
     inkscape:cy="248.58194"
     inkscape:window-width="1846"
     inkscape:window-height="1016"
     inkscape:window-x="0"
     inkscape:window-y="0"
     inkscape:window-maximized="1"
     inkscape:current-layer="Capa_1" />
  <defs
     id="defs4">
    <style
       id="style2">.cls-1{fill:#fff;}</style>
  </defs>
  <title
     id="title6">Logo VIPS 149x32 blanco tranparebte</title>
  <rect
     style="fill:#dd1b2d;fill-opacity:1;stroke-width:12.3484"
     id="rect35"
     width="400"
     height="92.776474"
     x="0"
     y="0" />
  <path
     class="cls-1"
     d="m 360.96024,69.189073 h -74.0754 V 57.329422 h 66.41407 c 2.8463,0 5.1708,-1.185966 5.1708,-2.609124 0,-1.42316 -2.37193,-2.609123 -5.1708,-2.609123 h -6.02472 -52.18247 a 14.919442,14.919442 0 0 1 -15.5124,-14.231583 14.919442,14.919442 0 0 1 15.5124,-14.231584 h 74.05166 v 11.859653 h -66.41404 c -2.84632,0 -5.14708,1.185965 -5.14708,2.632844 0,1.446876 2.37193,2.632841 5.14708,2.632841 h 5.12338 53.15495 a 14.919442,14.919442 0 0 1 15.46499,14.231582 14.919442,14.919442 0 0 1 -15.46499,14.231583 M 250.47571,56.831315 h -52.30106 v 12.357758 h -20.3749 V 23.553131 h 72.67596 c 14.23158,0 25.80661,7.424142 25.80661,16.603514 0,9.179371 -11.55131,16.603513 -25.80661,16.603513 M 167.69534,69.189073 H 147.34419 V 23.529412 h 20.35115 z m -86.575458,0 -57.59047,-45.659661 H 50.688014 L 81.143601,47.675664 111.14852,23.529412 h 26.68422 z M 247.60568,34.867239 h -49.81054 v 9.487722 h 49.81054 c 4.26947,0 7.7325,-2.0873 7.7325,-4.743861 0,-2.656561 -3.46303,-4.74386 -7.7325,-4.74386"
     id="path8"
     style="stroke-width:2.37193" />
  <metadata
     id="metadata966">
    <rdf:RDF>
      <cc:Work
         rdf:about="">
        <dc:title>Logo VIPS 149x32 blanco tranparebte</dc:title>
      </cc:Work>
    </rdf:RDF>
  </metadata>
</svg>
