<svg width="174" height="174" viewBox="0 0 174 174" fill="none" xmlns="http://www.w3.org/2000/svg">
<path d="M31.2842 76.245L34.3566 85.3231L44.2993 84.1035L36.2568 90.9344L39.3293 100.012L31.2868 95.1554L23.2443 101.986L26.3167 92.1539L18.2742 87.2969L28.217 86.0774L31.2894 76.245M31.2894 70.5942L29.6283 75.9112L26.9475 84.4899L18.2742 85.5543L12.8994 86.214L17.2492 88.8397L24.2667 93.0764L21.5858 101.655L19.9248 106.972L24.2746 103.279L31.292 97.3211L38.3095 101.558L42.6593 104.184L40.9982 99.2765L38.3174 91.3576L45.3349 85.3993L49.6847 81.7066L44.3099 82.3663L35.6366 83.4307L32.9557 75.5117L31.2947 70.6048L31.2894 70.5942Z" fill="white"/>
<path d="M36.2551 90.934L39.3275 100.012L31.285 95.155L23.2425 101.986L26.315 92.1535L18.2725 87.2965L28.2152 86.077L31.2876 76.2446L34.3601 85.3227L44.3028 84.1032L36.2603 90.934H36.2551Z" fill="#DB0032"/>
<path d="M38.3073 91.3495L40.9881 99.2684L42.6492 104.175L38.2994 101.55L31.2819 97.313L24.2645 103.271L19.9147 106.964L21.5757 101.647L24.2566 93.0683L17.2391 88.8316L12.8893 86.2059L18.2641 85.5462L26.9374 84.4818L29.6182 75.9031L31.2793 70.5861L32.9404 75.4931L35.6212 83.4121L44.2945 82.3476L49.6693 81.6879L45.3195 85.3807L38.302 91.3389L38.3073 91.3495ZM52.5367 81.6827L51.835 79.6063C51.6852 79.1622 51.2436 78.8836 50.7758 78.9414L44.2971 79.7378L37.5267 80.5683L35.4346 74.3866L33.4923 68.6465C33.3556 68.2443 32.9798 67.9736 32.554 67.9736H30.1781C29.7444 67.9736 29.3633 68.2549 29.2319 68.6675L27.1266 75.4037L25.0345 82.0979L18.2641 82.9285L11.6199 83.7432C11.2335 83.7906 10.9102 84.0586 10.7946 84.4318L10.0455 86.8499C9.90885 87.2861 10.0876 87.7566 10.4792 87.9932L15.7016 91.1471L21.1789 94.4534L19.0868 101.148L17.0683 107.605C16.9316 108.042 17.1103 108.512 17.5019 108.749L19.3075 109.839C19.6729 110.06 20.1354 110.021 20.4613 109.747L25.8072 105.208L31.2846 100.556L36.7619 103.863L42.0394 107.051C42.4048 107.271 42.8673 107.232 43.1932 106.959L45.217 105.24C45.5271 104.977 45.6428 104.551 45.514 104.168L43.4797 98.1593L41.3876 91.9776L46.8649 87.3256L52.2397 82.7603C52.5499 82.4974 52.6655 82.0717 52.5367 81.6879V81.6827Z" fill="#1A428A"/>
<path d="M58.1602 70.489H68.4525V74.4577H63.627V76.881H68.2606V80.8496H63.627V87.1233H58.1602V70.489Z" fill="#1A428A"/>
<path d="M70.2715 73.7688C70.445 73.3877 70.7025 72.9856 71.0442 72.5572C71.3859 72.1288 71.8195 71.7346 72.3504 71.3692C72.8814 71.0039 73.5279 70.7043 74.2875 70.4651C75.047 70.2286 75.9275 70.1077 76.9263 70.1077C77.925 70.1077 78.8002 70.2259 79.5519 70.4651C80.3036 70.7017 80.9501 71.0039 81.4889 71.3692C82.0277 71.7346 82.4666 72.1288 82.8083 72.5572C83.15 72.9856 83.4076 73.3877 83.581 73.7688V83.8456C83.4076 84.2267 83.15 84.6288 82.8083 85.0573C82.4666 85.4857 82.033 85.8825 81.5021 86.2452C80.9712 86.6106 80.3246 86.9102 79.565 87.1494C78.8055 87.3859 77.925 87.5068 76.9263 87.5068C75.9275 87.5068 75.0523 87.3885 74.3006 87.1494C73.5489 86.9128 72.9024 86.6106 72.3636 86.2452C71.8248 85.8799 71.3859 85.4857 71.0442 85.0573C70.7025 84.6288 70.445 84.2267 70.2715 83.8456V73.7688ZM75.7383 82.8705C75.8171 83.0282 75.9564 83.1596 76.1535 83.2621C76.3507 83.3647 76.6082 83.4172 76.9263 83.4172C77.2443 83.4172 77.4992 83.3673 77.699 83.2621C77.8961 83.1596 78.0354 83.0282 78.1142 82.8705V74.7413C78.0354 74.5836 77.8961 74.4522 77.699 74.3497C77.5018 74.2472 77.2443 74.1946 76.9263 74.1946C76.6082 74.1946 76.3507 74.2472 76.1535 74.3497C75.9538 74.4522 75.8171 74.5836 75.7383 74.7413V82.8705Z" fill="#1A428A"/>
<path d="M85.3213 81.6353H90.5726V82.8706C90.746 83.2359 91.1429 83.4173 91.7605 83.4173C92.3151 83.4173 92.712 83.2359 92.9485 82.8706V81.4934C92.8224 81.2253 92.4728 81.0334 91.9025 80.923L91.1429 80.7811C90.1757 80.6077 89.3609 80.3974 88.696 80.1503C88.031 79.9059 87.4712 79.6431 87.0218 79.3671C86.5697 79.0911 86.2096 78.8099 85.9416 78.5234C85.6709 78.237 85.4658 77.961 85.3239 77.6929V73.3431C85.4658 73.075 85.6971 72.7518 86.0125 72.3812C86.3305 72.008 86.7458 71.6558 87.261 71.3246C87.7761 70.9908 88.4042 70.707 89.1507 70.4678C89.8945 70.2313 90.7671 70.1104 91.7658 70.1104C92.7646 70.1104 93.6319 70.2286 94.3678 70.4678C95.1037 70.7043 95.7345 70.9908 96.2575 71.3246C96.7805 71.6584 97.2011 72.0106 97.5165 72.3812C97.8319 72.7544 98.0631 73.075 98.2051 73.3431V75.8873H92.9538V74.7466C92.7961 74.3813 92.3992 74.1999 91.7658 74.1999C91.4478 74.1999 91.1902 74.2551 90.9931 74.3655C90.7933 74.4759 90.6567 74.6021 90.5778 74.7466V75.9109C90.6409 76.0371 90.7513 76.1475 90.9116 76.2447C91.0693 76.3393 91.3085 76.4182 91.6239 76.4813L92.3598 76.6232C93.327 76.8124 94.147 77.0306 94.8199 77.2776C95.4927 77.5247 96.0551 77.7849 96.5072 78.0609C96.9593 78.3395 97.3193 78.6181 97.5874 78.9045C97.8555 79.191 98.0631 79.467 98.2051 79.7377V84.2767C98.0316 84.5632 97.7845 84.8917 97.4691 85.2623C97.1511 85.6355 96.7411 85.9877 96.2339 86.3189C95.7266 86.6527 95.1037 86.9339 94.3678 87.1626C93.6319 87.3912 92.7646 87.5069 91.7658 87.5069C90.7671 87.5069 89.8997 87.3912 89.1638 87.1626C88.4279 86.9339 87.7997 86.6527 87.2872 86.3189C86.7721 85.9851 86.3568 85.6329 86.0388 85.2623C85.7208 84.8891 85.4842 84.5606 85.3266 84.2767V81.6379L85.3213 81.6353Z" fill="#1A428A"/>
<path d="M103.027 74.4577H99.8184V70.489H111.653V74.4577H108.492V87.126H103.025V74.4577H103.027Z" fill="#1A428A"/>
<path d="M113.391 70.489H123.919V74.4577H118.857V76.6917H123.588V80.6604H118.857V83.1546H124.038V87.1233H113.391V70.489Z" fill="#1A428A"/>
<path d="M131.922 81.6592H131.375V87.126H125.908V70.489H133.798C134.907 70.489 135.917 70.7361 136.829 71.2249C137.741 71.7164 138.463 72.4208 139.002 73.3407V78.7838C138.527 79.6249 137.885 80.2898 137.076 80.7813L139.239 84.2506V87.126H134.676L131.919 81.6592H131.922ZM132.563 77.9507C133.244 77.9507 133.672 77.7693 133.846 77.404V75.0044C133.656 74.639 133.228 74.4577 132.563 74.4577H131.375V77.9507H132.563Z" fill="#1A428A"/>
<path d="M140.742 74.0502V70.4521H144.548V74.0292L144.006 77.0438H141.281L140.739 74.0502H140.742Z" fill="#1A428A"/>
<path d="M146.116 81.6353H151.367V82.8706C151.541 83.2359 151.938 83.4173 152.555 83.4173C153.11 83.4173 153.507 83.2359 153.743 82.8706V81.4934C153.617 81.2253 153.268 81.0334 152.697 80.923L151.938 80.7811C150.971 80.6077 150.156 80.3974 149.491 80.1503C148.826 79.9059 148.266 79.6431 147.817 79.3671C147.365 79.0911 147.005 78.8099 146.736 78.5234C146.466 78.237 146.261 77.961 146.119 77.6929V73.3431C146.261 73.075 146.492 72.7518 146.807 72.3812C147.125 72.008 147.541 71.6558 148.056 71.3246C148.571 70.9908 149.199 70.707 149.946 70.4678C150.689 70.2313 151.562 70.1104 152.561 70.1104C153.559 70.1104 154.427 70.2286 155.163 70.4678C155.899 70.7043 156.529 70.9908 157.052 71.3246C157.575 71.6584 157.996 72.0106 158.311 72.3812C158.627 72.7544 158.858 73.075 159 73.3431V75.8873H153.749V74.7466C153.591 74.3813 153.194 74.1999 152.561 74.1999C152.243 74.1999 151.985 74.2551 151.788 74.3655C151.588 74.4759 151.452 74.6021 151.373 74.7466V75.9109C151.436 76.0371 151.546 76.1475 151.707 76.2447C151.864 76.3393 152.103 76.4182 152.419 76.4813L153.155 76.6232C154.122 76.8124 154.942 77.0306 155.615 77.2776C156.288 77.5247 156.85 77.7849 157.302 78.0609C157.754 78.3395 158.114 78.6181 158.382 78.9045C158.65 79.191 158.858 79.467 159 79.7377V84.2767C158.827 84.5632 158.579 84.8917 158.264 85.2623C157.946 85.6355 157.536 85.9877 157.029 86.3189C156.522 86.6527 155.899 86.9339 155.163 87.1626C154.427 87.3912 153.559 87.5069 152.561 87.5069C151.562 87.5069 150.695 87.3912 149.959 87.1626C149.223 86.9339 148.595 86.6527 148.082 86.3189C147.567 85.9851 147.152 85.6329 146.834 85.2623C146.516 84.8891 146.279 84.5606 146.121 84.2767V81.6379L146.116 81.6353Z" fill="#1A428A"/>
<path d="M58.1406 89.0469H61.5915V95.5834H64.8611V89.0469H68.312V105.997H64.8611V98.9502H61.5915V105.997H58.1406V89.0469Z" fill="#DB0032"/>
<path d="M70.1182 92.3876C70.2522 92.0012 70.4441 91.5886 70.699 91.1523C70.954 90.716 71.2799 90.3165 71.6794 89.9538C72.0789 89.5911 72.5572 89.2888 73.1144 89.047C73.6716 88.8052 74.3181 88.6843 75.0567 88.6843C75.7952 88.6843 76.4418 88.8052 76.999 89.047C77.5562 89.2888 78.0345 89.5911 78.434 89.9538C78.8335 90.3165 79.1594 90.716 79.4144 91.1523C79.6693 91.5886 79.8612 91.9986 79.9952 92.3876V102.654C79.8612 103.04 79.6693 103.453 79.4144 103.889C79.1594 104.325 78.8335 104.725 78.434 105.087C78.0345 105.45 77.5562 105.752 76.999 105.994C76.4418 106.236 75.7952 106.357 75.0567 106.357C74.3181 106.357 73.6716 106.236 73.1144 105.994C72.5572 105.752 72.0789 105.45 71.6794 105.087C71.2799 104.725 70.954 104.325 70.699 103.889C70.4441 103.453 70.2522 103.043 70.1182 102.654V92.3876ZM76.5469 93.2339C76.4497 92.9421 76.2736 92.6898 76.0213 92.4717C75.7663 92.2535 75.4457 92.1458 75.0593 92.1458C74.673 92.1458 74.3523 92.2535 74.0974 92.4717C73.8424 92.6898 73.6663 92.9447 73.5717 93.2339V101.805C73.669 102.096 73.845 102.349 74.0974 102.567C74.3523 102.785 74.673 102.893 75.0593 102.893C75.4457 102.893 75.7663 102.785 76.0213 102.567C76.2762 102.349 76.4497 102.094 76.5469 101.805V93.2339Z" fill="#DB0032"/>
<path d="M81.7979 89.0469H85.2488V102.63H88.8626V105.997H81.7979V89.0469Z" fill="#DB0032"/>
<path d="M90.4287 89.0469H93.8796V102.63H97.4935V105.997H90.4287V89.0469Z" fill="#DB0032"/>
<path d="M100.264 99.0947L97.1758 91.5174V89.0469H100.298L102.041 94.398H102.385L104.164 89.0469H106.979V91.5174L103.71 99.5547V105.997H100.259V99.0947H100.264Z" fill="#DB0032"/>
<path d="M108.394 91.5174V89.0469H111.698L112.915 99.8201H113.259L114.912 89.0469H117.871L119.543 99.8201H119.887L121.086 89.0469H124.408V91.5174L122.318 105.997H117.906L116.434 97.6439H116.09L114.636 105.997H110.478L108.389 91.5174H108.394Z" fill="#DB0032"/>
<path d="M125.932 92.3876C126.066 92.0012 126.258 91.5886 126.512 91.1523C126.767 90.716 127.093 90.3165 127.493 89.9538C127.892 89.5911 128.371 89.2888 128.928 89.047C129.485 88.8052 130.132 88.6843 130.87 88.6843C131.609 88.6843 132.255 88.8052 132.812 89.047C133.37 89.2888 133.848 89.5911 134.247 89.9538C134.647 90.3165 134.973 90.716 135.228 91.1523C135.483 91.5886 135.675 91.9986 135.809 92.3876V102.654C135.675 103.04 135.483 103.453 135.228 103.889C134.973 104.325 134.647 104.725 134.247 105.087C133.848 105.45 133.37 105.752 132.812 105.994C132.255 106.236 131.609 106.357 130.87 106.357C130.132 106.357 129.485 106.236 128.928 105.994C128.371 105.752 127.892 105.45 127.493 105.087C127.093 104.725 126.767 104.325 126.512 103.889C126.258 103.453 126.066 103.043 125.932 102.654V92.3876ZM132.36 93.2339C132.263 92.9421 132.087 92.6898 131.835 92.4717C131.58 92.2535 131.259 92.1458 130.873 92.1458C130.486 92.1458 130.166 92.2535 129.911 92.4717C129.656 92.6898 129.48 92.9447 129.385 93.2339V101.805C129.482 102.096 129.659 102.349 129.911 102.567C130.166 102.785 130.486 102.893 130.873 102.893C131.259 102.893 131.58 102.785 131.835 102.567C132.09 102.349 132.263 102.094 132.36 101.805V93.2339Z" fill="#DB0032"/>
<path d="M137.483 92.3876C137.617 92.0012 137.809 91.5886 138.064 91.1523C138.319 90.716 138.645 90.3165 139.045 89.9538C139.444 89.5911 139.922 89.2888 140.48 89.047C141.037 88.8052 141.683 88.6843 142.422 88.6843C143.16 88.6843 143.807 88.8052 144.364 89.047C144.921 89.2888 145.4 89.5911 145.799 89.9538C146.199 90.3165 146.525 90.716 146.78 91.1523C147.035 91.5886 147.226 91.9986 147.36 92.3876V102.654C147.226 103.04 147.035 103.453 146.78 103.889C146.525 104.325 146.199 104.725 145.799 105.087C145.4 105.45 144.921 105.752 144.364 105.994C143.807 106.236 143.16 106.357 142.422 106.357C141.683 106.357 141.037 106.236 140.48 105.994C139.922 105.752 139.444 105.45 139.045 105.087C138.645 104.725 138.319 104.325 138.064 103.889C137.809 103.453 137.617 103.043 137.483 102.654V92.3876ZM143.912 93.2339C143.815 92.9421 143.639 92.6898 143.386 92.4717C143.132 92.2535 142.811 92.1458 142.425 92.1458C142.038 92.1458 141.718 92.2535 141.463 92.4717C141.208 92.6898 141.032 92.9447 140.937 93.2339V101.805C141.034 102.096 141.21 102.349 141.463 102.567C141.718 102.785 142.038 102.893 142.425 102.893C142.811 102.893 143.132 102.785 143.386 102.567C143.641 102.349 143.815 102.094 143.912 101.805V93.2339Z" fill="#DB0032"/>
<path d="M149.163 89.0471H154.756C155.337 89.0471 155.857 89.1469 156.317 89.3493C156.777 89.5517 157.179 89.8093 157.524 90.1247C157.868 90.44 158.16 90.7949 158.396 91.1891C158.633 91.586 158.817 91.9855 158.951 92.3876V102.654C158.817 103.058 158.633 103.458 158.396 103.852C158.16 104.249 157.871 104.604 157.524 104.917C157.179 105.232 156.777 105.49 156.317 105.692C155.857 105.894 155.337 105.994 154.756 105.994H149.163V89.0444V89.0471ZM154.031 102.63C154.417 102.63 154.735 102.53 154.985 102.328C155.232 102.125 155.405 101.881 155.502 101.589V93.4547C155.405 93.1629 155.232 92.9185 154.985 92.7161C154.738 92.5137 154.42 92.4139 154.031 92.4139H152.614V102.633H154.031V102.63Z" fill="#DB0032"/>
</svg>
